<?xml version="1.0" standalone="no"?>
<!DOCTYPE svg PUBLIC "-//W3C//DTD SVG 20010904//EN"
 "http://www.w3.org/TR/2001/REC-SVG-20010904/DTD/svg10.dtd">
<svg version="1.0" xmlns="http://www.w3.org/2000/svg"
 width="450.000000pt" height="450.000000pt" viewBox="0 0 450.000000 450.000000"
 preserveAspectRatio="xMidYMid meet">
<metadata>
Created by potrace 1.11, written by Peter Selinger 2001-2013
</metadata>
<g transform="translate(0.000000,450.000000) scale(0.100000,-0.100000)"
fill="#000000" stroke="none">
<path d="M2104 4021 c-17 -9 -49 -26 -70 -37 -41 -23 -170 -39 -180 -23 -3 5
-13 9 -22 9 -29 0 -123 -49 -155 -80 -17 -16 -40 -33 -51 -36 -30 -10 -74 -64
-82 -99 -3 -16 -19 -50 -35 -74 -28 -43 -47 -106 -35 -118 9 -9 -33 -63 -50
-63 -18 0 -60 -64 -85 -131 -53 -142 -78 -325 -62 -454 11 -88 5 -119 -26
-123 -27 -4 -111 -84 -111 -106 0 -8 -5 -16 -10 -18 -32 -10 -50 -254 -23
-303 6 -11 17 -35 24 -53 27 -74 195 -212 257 -212 11 0 30 -8 43 -19 13 -10
34 -21 46 -25 27 -9 83 18 83 39 0 8 7 15 15 15 16 0 16 -1 19 -125 1 -68 4
-80 18 -79 11 1 18 -9 22 -31 4 -18 15 -44 26 -57 16 -22 25 -71 21 -119 0 -9
-13 -20 -28 -24 -42 -10 -97 -59 -158 -141 -77 -101 -113 -138 -160 -163 -88
-47 -232 -136 -270 -167 -41 -34 -123 -83 -148 -89 -15 -4 -31 -13 -38 -21 -6
-8 -16 -14 -23 -14 -6 0 -54 -21 -106 -46 -52 -25 -113 -54 -135 -63 -137 -60
-238 -115 -278 -152 -26 -23 -47 -46 -47 -51 0 -5 -16 -22 -35 -39 -19 -17
-35 -37 -35 -44 0 -8 -11 -27 -25 -43 -14 -17 -25 -36 -25 -44 0 -8 -4 -18 -9
-23 -10 -11 -63 -155 -56 -155 2 0 0 -14 -5 -31 -5 -16 -12 -78 -15 -137 -7
-127 -14 -210 -21 -234 -5 -17 100 -18 2099 -18 l2103 0 -13 103 c-8 56 -14
116 -15 132 0 17 -9 73 -20 125 -10 52 -22 112 -25 133 -3 21 -10 40 -14 43
-5 3 -9 13 -9 22 0 25 -73 165 -110 211 -18 22 -66 69 -108 105 -43 37 -84 73
-92 81 -14 13 -47 29 -165 80 -80 35 -108 44 -115 40 -5 -3 -10 0 -12 6 -2 6
-16 13 -31 14 -16 2 -33 8 -40 13 -7 5 -66 26 -132 47 -66 21 -124 42 -130 47
-5 4 -16 8 -25 8 -10 0 -71 26 -136 58 -65 32 -134 65 -152 72 -25 10 -32 18
-29 32 3 10 2 32 -3 47 -12 43 34 104 80 106 8 0 19 14 25 30 5 17 20 41 32
55 13 13 35 42 50 64 16 23 35 46 44 53 9 6 24 41 33 77 17 60 41 98 55 86 8
-6 19 122 12 135 -5 11 -7 25 -15 155 -9 142 -14 173 -30 221 -22 62 -21 95 4
102 11 3 22 11 24 19 13 47 45 241 41 248 -3 5 -2 11 3 14 17 10 4 190 -20
263 l-23 72 -45 8 c-33 6 -46 13 -48 28 -2 11 -6 27 -9 35 -3 8 -5 24 -4 36 2
25 -34 134 -62 183 -35 62 -101 161 -107 161 -18 0 -136 186 -122 192 9 4 52
64 52 72 0 3 -6 6 -12 6 -31 0 -88 22 -88 34 0 22 -46 57 -83 63 -20 3 -34 10
-31 15 3 5 7 20 9 34 3 27 -13 31 -47 13 -18 -10 -20 -9 -14 6 14 37 -5 37
-82 2 -16 -8 -51 -7 -120 1 -53 6 -116 9 -139 6 -24 -3 -43 -1 -43 4 0 5 -14
6 -31 4 -17 -3 -34 0 -38 6 -4 6 -17 4 -37 -7z m675 -367 c41 -29 115 -109
155 -167 22 -32 44 -57 49 -57 6 0 7 -3 4 -6 -4 -4 0 -19 8 -33 29 -53 45 -97
55 -150 17 -91 17 -91 -35 -67 -25 12 -45 27 -45 33 0 16 -51 38 -107 46 -52
9 -193 -21 -241 -50 -13 -8 -30 -12 -38 -9 -20 8 -46 -37 -42 -71 2 -22 8 -28
27 -28 34 0 35 -14 3 -60 l-28 -40 -68 0 c-58 0 -70 -3 -86 -22 -26 -33 -75
-30 -129 7 -24 17 -48 30 -53 30 -4 0 -8 7 -8 15 0 8 9 15 20 15 26 0 26 30
-1 64 -23 29 -47 34 -56 10 -4 -12 -8 -13 -13 -3 -15 24 -203 7 -265 -23 -134
-66 -198 -145 -86 -105 27 9 52 17 56 17 4 0 -16 -21 -45 -47 -54 -48 -100
-112 -100 -137 0 -17 -10 -21 -108 -36 -77 -13 -139 -7 -111 11 7 5 10 9 5 9
-5 0 -4 6 1 13 22 26 39 147 22 147 -8 0 -8 4 0 14 7 8 8 17 4 19 -13 8 -5
264 8 306 7 20 25 55 41 78 26 39 27 43 11 52 -15 9 -13 10 14 11 22 0 42 10
67 34 20 18 36 37 36 42 1 10 64 44 82 44 7 0 22 -10 35 -22 18 -17 33 -21 70
-19 27 1 114 3 194 4 125 2 150 -1 165 -15 35 -31 70 -33 99 -4 25 25 54 33
69 19 3 -4 31 -8 61 -10 43 -3 55 0 55 11 0 8 -4 18 -10 21 -20 12 -9 25 20
25 39 0 88 25 114 57 33 43 86 54 125 27z m248 -531 c35 -16 39 -23 51 -78 15
-76 20 -109 28 -216 6 -80 5 -88 -16 -117 -14 -19 -54 -47 -99 -68 -131 -65
-238 -48 -344 54 -61 58 -80 103 -77 181 1 54 6 64 30 56 12 -4 22 0 28 11 8
14 10 10 16 -18 8 -42 36 -70 71 -70 54 0 110 85 99 152 l-7 40 53 0 c29 0 70
-5 92 -12 45 -13 66 -2 46 25 -21 28 -117 40 -226 28 -53 -6 -98 -9 -100 -7
-2 3 18 17 43 32 94 54 210 57 312 7z m144 -181 c12 -59 7 -128 -10 -145 -6
-6 -12 -9 -15 -6 -2 2 -7 56 -11 119 -7 103 -6 113 8 101 9 -7 21 -38 28 -69z
m-1024 42 c-1 -1 -18 -5 -37 -8 -82 -14 -240 -77 -240 -97 0 -5 -8 -12 -17
-16 -26 -9 -53 -34 -53 -50 0 -16 33 -17 61 -3 11 6 19 7 18 3 -6 -33 5 -66
28 -88 32 -29 52 -31 93 -10 44 23 62 66 59 138 l-3 62 40 7 c77 14 103 10
130 -19 25 -27 26 -27 40 -8 14 19 15 19 40 -10 35 -42 53 -85 60 -147 8 -68
-8 -106 -74 -179 -64 -70 -154 -116 -246 -125 -61 -6 -71 -4 -128 25 -71 35
-98 57 -148 120 -32 41 -34 49 -34 115 -1 111 53 205 150 262 57 33 165 53
221 40 24 -5 42 -10 40 -12z m370 -38 c2 -2 5 -30 7 -62 5 -90 21 -135 72
-194 26 -30 51 -58 55 -61 12 -7 49 -112 43 -121 -3 -5 -13 -8 -22 -8 -30 -1
-64 -34 -60 -61 4 -34 41 -37 83 -5 39 30 53 78 37 126 -11 30 -10 30 16 23
15 -5 68 -8 117 -8 75 1 96 4 125 23 19 12 42 22 51 22 9 0 24 9 34 20 29 33
45 25 46 -22 1 -24 0 -47 -2 -53 -1 -5 -2 -20 -2 -32 1 -13 -5 -23 -11 -23 -7
0 -19 -19 -26 -42 -7 -24 -18 -48 -24 -53 -6 -6 -16 -19 -21 -29 -12 -20 -27
-21 -250 -13 -44 2 -100 -3 -125 -10 -25 -7 -79 -16 -120 -19 -44 -4 -87 -15
-105 -26 -16 -10 -47 -18 -67 -18 -20 0 -40 -5 -44 -11 -3 -6 -18 -9 -32 -6
-28 5 -92 -37 -92 -60 0 -18 -17 -16 -28 4 -13 23 -38 10 -63 -32 -20 -33 -39
-46 -39 -26 0 5 -16 11 -35 13 -19 2 -35 0 -35 -5 0 -4 -9 -5 -20 -2 -14 5
-20 2 -20 -9 0 -9 -8 -17 -17 -17 -10 -1 -25 -2 -33 -3 -8 -1 -21 -5 -28 -9
-7 -5 -24 -6 -36 -3 -19 5 -25 1 -30 -17 l-7 -22 -11 22 c-14 29 -40 38 -54
19 -16 -22 -27 -20 -21 4 3 12 -1 24 -11 30 -11 6 -13 9 -4 10 10 0 9 4 -2 16
-9 8 -14 20 -11 25 4 5 -1 9 -10 9 -16 0 -31 28 -37 71 -1 13 -7 27 -12 31 -6
4 -9 29 -7 57 2 41 -1 51 -13 51 -12 0 -16 11 -16 44 0 28 -6 51 -16 61 -13
12 -15 27 -10 66 7 52 -3 64 -23 27 -10 -21 -11 -19 -7 15 4 28 1 37 -10 37
-8 0 -14 9 -14 20 0 15 7 20 28 20 15 0 52 7 82 15 30 8 55 13 56 12 2 -1 4
-30 5 -63 4 -113 71 -202 201 -268 95 -48 168 -50 265 -6 36 17 71 30 77 30 6
0 19 8 27 18 9 9 28 26 43 36 79 57 116 208 78 320 -11 32 -17 66 -15 76 7 27
81 62 117 55 16 -3 31 -7 33 -9z m669 -281 c-21 -49 -40 -37 -33 22 2 24 13
53 23 65 19 20 19 20 22 -15 2 -19 -4 -52 -12 -72z m-1847 80 c34 -7 121 -85
121 -108 0 -7 3 -22 6 -34 9 -32 -5 -28 -51 15 -125 115 -153 120 -202 34 -7
-12 -13 -28 -13 -35 0 -8 -6 -27 -14 -43 -19 -40 -28 -106 -17 -124 15 -22 32
0 37 46 3 22 16 67 31 102 30 73 45 77 98 31 39 -34 43 -53 19 -87 -8 -12 -18
-47 -21 -78 -5 -48 -3 -58 18 -81 13 -14 41 -36 62 -49 28 -19 37 -31 37 -52
0 -35 -16 -52 -51 -52 -30 0 -44 -21 -26 -39 6 -6 22 -11 34 -11 21 0 22 -3
13 -20 -6 -11 -18 -20 -27 -20 -20 0 -99 46 -133 77 -14 13 -27 23 -31 23 -11
0 -66 94 -79 135 -23 69 -16 248 10 276 8 9 23 29 34 44 22 33 76 66 96 61 8
-3 30 -8 49 -11z m150 -284 c6 -41 19 -87 28 -101 10 -14 18 -29 20 -35 1 -5
9 -35 18 -65 20 -74 20 -94 -2 -85 -10 4 -32 13 -49 19 -30 11 -31 13 -17 31
10 13 13 34 10 63 -5 46 -32 79 -89 108 -29 15 -30 18 -25 66 8 62 17 74 60
74 l34 0 12 -75z m1319 -120 c3 -8 -1 -12 -9 -9 -7 2 -15 10 -17 17 -3 8 1 12
9 9 7 -2 15 -10 17 -17z m-2 -57 c30 -1 54 2 54 7 0 5 5 9 10 9 6 0 10 -5 10
-11 0 -6 11 -25 25 -43 14 -18 22 -35 19 -38 -3 -3 0 -34 6 -69 11 -60 11 -65
-9 -78 -12 -7 -21 -22 -21 -33 0 -18 -2 -19 -16 -7 -13 10 -17 10 -25 -2 -5
-8 -9 -17 -9 -21 0 -5 -7 -8 -15 -8 -8 0 -15 -6 -15 -14 0 -7 -6 -19 -14 -25
-11 -9 -16 -6 -24 18 -7 19 -18 31 -34 33 -15 2 -24 11 -26 25 -5 34 -27 46
-71 38 -49 -8 -56 -16 -74 -85 -12 -47 -17 -55 -35 -53 -12 2 -22 -2 -22 -7 0
-6 -7 -10 -16 -10 -8 0 -22 -6 -30 -14 -14 -15 -50 -16 -72 -2 -7 4 -15 1 -18
-8 -3 -9 -15 -16 -25 -16 -10 0 -19 -4 -19 -10 0 -18 -31 -10 -50 12 -15 19
-20 20 -33 9 -14 -11 -19 -8 -37 21 -25 39 -22 106 8 203 16 51 23 60 45 63
14 2 31 10 37 17 8 10 18 12 29 6 21 -12 103 9 130 33 14 12 28 16 45 12 14
-3 27 -2 30 3 3 4 29 11 58 15 29 4 58 12 65 18 7 6 19 8 27 5 8 -3 20 1 26 8
7 8 17 12 22 9 6 -4 34 -8 64 -10z m-122 -243 c7 -11 -52 -26 -62 -16 -8 8 18
25 40 25 9 0 19 -4 22 -9z m-254 -187 c0 -8 -5 -12 -10 -9 -6 4 -8 11 -5 16 9
14 15 11 15 -7z m-53 -31 c-3 -10 -5 -4 -5 12 0 17 2 24 5 18 2 -7 2 -21 0
-30z m-637 -119 c7 -18 15 -24 26 -20 23 9 44 -12 44 -43 0 -37 14 -55 36 -47
11 4 26 -2 43 -18 14 -13 62 -38 106 -56 44 -17 84 -35 90 -41 5 -5 16 -9 25
-9 9 0 27 -11 40 -25 17 -19 27 -22 36 -14 10 8 26 7 61 -4 44 -14 88 -21 201
-33 24 -2 52 -9 62 -14 23 -12 82 -1 93 17 7 12 41 10 56 -3 8 -8 -86 -113
-111 -124 -35 -15 -64 -47 -82 -91 -20 -49 -40 -64 -56 -44 -7 8 -19 15 -26
15 -8 0 -14 4 -14 9 0 13 -122 89 -157 97 -26 7 -88 34 -123 54 -8 5 -64 34
-125 64 -60 30 -141 74 -180 98 l-70 44 1 54 c3 96 7 160 11 160 2 0 8 -12 13
-26z m-67 -72 c-25 -4 -53 -37 -53 -63 0 -19 82 -96 120 -112 14 -6 50 -28 80
-47 30 -20 78 -48 105 -61 234 -117 285 -140 294 -135 5 4 12 2 15 -3 3 -5 -2
-11 -12 -13 -9 -3 -24 -18 -32 -34 -8 -16 -25 -44 -37 -63 -13 -19 -28 -51
-34 -73 -5 -21 -16 -41 -23 -44 -7 -3 -40 10 -72 29 -32 19 -86 47 -119 62
-116 53 -170 80 -173 88 -2 4 -8 7 -13 7 -10 0 -34 19 -85 65 -18 17 -47 41
-64 55 -51 40 -54 43 -89 88 -35 46 -36 44 11 96 10 11 24 32 30 48 7 15 16
28 20 28 4 0 27 20 50 44 42 43 73 58 93 47 6 -3 0 -7 -12 -9z m1175 -230 c3
-39 -42 -256 -62 -304 -9 -21 -20 -38 -26 -38 -5 0 -49 40 -98 90 l-89 90 94
87 c60 58 106 92 130 99 46 14 48 13 51 -24z m-576 -247 c0 -5 -5 -11 -11 -13
-6 -2 -11 4 -11 13 0 9 5 15 11 13 6 -2 11 -8 11 -13z m298 0 c0 -2 -9 -9 -20
-15 -12 -6 -20 -7 -20 -1 0 5 8 12 18 14 9 3 18 5 20 6 1 0 2 -1 2 -4z m-233
-35 c14 -11 20 -20 14 -20 -14 0 -71 28 -71 35 0 12 34 3 57 -15z m-87 -10
c18 -12 2 -12 -25 0 -13 6 -15 9 -5 9 8 0 22 -4 30 -9z"/>
<path d="M2320 2456 c-12 -32 5 -83 30 -91 10 -3 38 -1 63 5 25 5 58 7 74 4
21 -4 33 0 48 16 45 50 -37 78 -121 41 -52 -23 -64 -21 -64 14 0 34 -18 41
-30 11z"/>
<path d="M2745 2230 c-128 -52 -155 -60 -207 -60 -31 0 -86 -7 -122 -15 -37
-9 -82 -13 -104 -9 -28 4 -41 2 -52 -11 -11 -14 -11 -18 3 -32 15 -15 26 -15
145 6 79 14 143 20 165 16 27 -5 49 -1 89 18 29 13 70 30 91 37 52 16 73 61
28 59 -9 0 -25 -4 -36 -9z"/>
</g>
</svg>
